<svg viewBox="0 0 920 400" xmlns="http://www.w3.org/2000/svg" role="img">
  <title>Monkeytype Stats</title>
  <desc>15s PB N/A WPM, 30s PB N/A WPM, 60s PB N/A WPM, Rookie tier, 0-day streak.</desc>
  <defs>
    <linearGradient id="bg" x1="0" y1="0" x2="1" y2="1">
      <stop offset="0%" stop-color="#0d1117"/>
      <stop offset="100%" stop-color="#161b22"/>
    </linearGradient>
    <linearGradient id="xpFill" x1="0" y1="0" x2="1" y2="0">
      <stop offset="0%" stop-color="#8b8f98"/>
      <stop offset="100%" stop-color="#8b8f98cc"/>
    </linearGradient>
    <filter id="glow" x="-50%" y="-50%" width="200%" height="200%">
      <feGaussianBlur stdDeviation="4" result="blur"/>
      <feMerge><feMergeNode in="blur"/><feMergeNode in="SourceGraphic"/></feMerge>
    </filter>
  </defs>

  <rect x="0.5" y="0.5" width="919" height="399" rx="18" fill="url(#bg)" stroke="#8b8f98" stroke-opacity="0.35"/>

  <text x="30" y="46" font-size="22" font-weight="800" fill="#e6edf3">⌨ MONKEYTYPE STATS</text>

  <g filter="url(#glow)">
    <rect x="720" y="24" width="170" height="32" rx="16" fill="#8b8f9822" stroke="#8b8f98"/>
    <text x="805" y="45" text-anchor="middle" font-size="13" font-weight="700" fill="#8b8f98">ROOKIE TIER</text>
  </g>

  <text x="30" y="82" font-size="12" font-weight="700" fill="#e6edf3">LVL 1</text>
  <rect x="110" y="76" width="780" height="10" rx="5" fill="#21262d"/>
  <rect x="110" y="76" width="0" height="10" rx="5" fill="url(#xpFill)">
    <animate attributeName="width" from="0" to="0" dur="1s" begin="0s" fill="freeze" calcMode="spline" keySplines="0.25 0.1 0.25 1"/>
  </rect>
  <text x="890" y="90" text-anchor="end" font-size="11" fill="#8b949e">0 tests played • 0% to Bronze</text>

  
      <rect x="30" y="112" width="273.3333333333333" height="150" rx="14" fill="#161b22" stroke="#30363d"/>
      <text x="48" y="138" font-size="11" font-weight="600" letter-spacing="1" fill="#8b949e">15s SPRINT</text>
      <text x="166.66666666666666" y="195" text-anchor="middle" font-size="16" fill="#484f58">No data yet</text>
    

      <rect x="323.3333333333333" y="112" width="273.3333333333333" height="150" rx="14" fill="#161b22" stroke="#30363d"/>
      <text x="341.3333333333333" y="138" font-size="11" font-weight="600" letter-spacing="1" fill="#8b949e">30s SPRINT</text>
      <text x="460" y="195" text-anchor="middle" font-size="16" fill="#484f58">No data yet</text>
    

      <rect x="616.6666666666666" y="112" width="273.3333333333333" height="150" rx="14" fill="#161b22" stroke="#30363d"/>
      <text x="634.6666666666666" y="138" font-size="11" font-weight="600" letter-spacing="1" fill="#8b949e">60s SPRINT</text>
      <text x="753.3333333333333" y="195" text-anchor="middle" font-size="16" fill="#484f58">No data yet</text>
    

  <text x="30" y="292" font-size="11" font-weight="600" letter-spacing="1" fill="#8b949e">ACHIEVEMENTS</text>
  
        <rect x="30" y="300" width="164" height="32" rx="16" fill="#21262d" stroke="#30363d"/>
        <text x="44" y="321" font-size="14">⚡</text>
        <text x="64" y="321" font-size="10" font-weight="600" fill="#484f58">Speed Demon</text>
      

        <rect x="204" y="300" width="164" height="32" rx="16" fill="#21262d" stroke="#30363d"/>
        <text x="218" y="321" font-size="14">🎯</text>
        <text x="238" y="321" font-size="10" font-weight="600" fill="#484f58">Sharpshooter</text>
      

        <rect x="378" y="300" width="164" height="32" rx="16" fill="#21262d" stroke="#30363d"/>
        <text x="392" y="321" font-size="14">🔥</text>
        <text x="412" y="321" font-size="10" font-weight="600" fill="#484f58">On Fire</text>
      

        <rect x="552" y="300" width="164" height="32" rx="16" fill="#21262d" stroke="#30363d"/>
        <text x="566" y="321" font-size="14">🏃</text>
        <text x="586" y="321" font-size="10" font-weight="600" fill="#484f58">Marathoner</text>
      

        <rect x="726" y="300" width="164" height="32" rx="16" fill="#21262d" stroke="#30363d"/>
        <text x="740" y="321" font-size="14">💎</text>
        <text x="760" y="321" font-size="10" font-weight="600" fill="#484f58">Diamond Tier</text>
      

  <text x="30" y="372" font-size="13" font-weight="700" fill="#f97316">🔥 0-day streak</text>
  <text x="230" y="372" font-size="12" fill="#8b949e">⏱ 0.0h typed</text>
  <text x="890" y="368" text-anchor="end" font-size="10" fill="#484f58">Updated Tue, 15 Sep 2026 04:39:28 GMT</text>
</svg>